<?xml version="1.0" encoding="iso-8859-1"?>
<!-- Generator: Adobe Illustrator 19.0.0, SVG Export Plug-In . SVG Version: 6.00 Build 0)  -->
<svg version="1.1" id="Layer_1" xmlns="http://www.w3.org/2000/svg" xmlns:xlink="http://www.w3.org/1999/xlink" x="0px" y="0px"
	 viewBox="0 0 512 512">
<g>
	<g>
		<path fill="#007FFF" d="M469.599,141.887H42.401C19.021,141.887,0,160.908,0,184.288v143.425c0,23.38,19.021,42.401,42.401,42.401h427.198
			c23.38,0,42.401-19.021,42.401-42.401V184.288C512,160.908,492.979,141.887,469.599,141.887z M146.52,286.436
			c-16.809,0-30.436-13.626-30.436-30.436c0-16.809,13.626-30.436,30.436-30.436c16.81,0,30.437,13.626,30.437,30.436
			S163.33,286.436,146.52,286.436z M255.851,286.436c-16.81,0-30.436-13.626-30.436-30.436c0-16.809,13.626-30.436,30.436-30.436
			c16.809,0,30.436,13.626,30.436,30.436S272.66,286.436,255.851,286.436z M405.609,274.171H346.86
			c-10.036,0-18.172-8.136-18.172-18.172c0-10.036,8.136-18.172,18.172-18.172h58.749c10.036,0,18.172,8.136,18.172,18.172
			C423.781,266.035,415.645,274.171,405.609,274.171z"/>
	</g>
</g>
<g>
</g>
<g>
</g>
<g>
</g>
<g>
</g>
<g>
</g>
<g>
</g>
<g>
</g>
<g>
</g>
<g>
</g>
<g>
</g>
<g>
</g>
<g>
</g>
<g>
</g>
<g>
</g>
<g>
</g>
</svg>
